<mxfile host="app.diagrams.net" modified="2024-02-26T17:36:14.535Z" agent="Mozilla/5.0 (X11; Ubuntu; Linux x86_64; rv:122.0) Gecko/20100101 Firefox/122.0" version="23.1.6" etag="38eDjBxr91Ue8AwniGC8" type="github">
  <diagram name="PÃ¡gina-1" id="U-nyFvwGCSKH1juZvQQW">
    <mxGraphModel>
      <root>
        <mxCell id="0" />
        <mxCell id="1" parent="0" />
      </root>
    </mxGraphModel>
  </diagram>
</mxfile>
